<svg xmlns="http://www.w3.org/2000/svg" width="105" height="105" viewBox="0 0 105 105">
  <defs>
    <style>
      .cls-1 {
        fill: none;
      }

      .cls-2 {
        fill: #cf4927;
      }

      .cls-3 {
        opacity: 0.15;
      }

      .cls-4 {
        fill: #fff;
      }
    </style>
  </defs>
  <g id="Layer_2" data-name="Layer 2">
    <g id="Layer_1-2" data-name="Layer 1">
      <g>
        <rect class="cls-1" width="105" height="105"/>
        <g id="illustration-food">
          <path class="cls-2" d="M102.5,102.5H52.16c-43.9,0-66.63-53.06-34.69-85s85-9.21,85,34.66Z"/>
          <g class="cls-3">
            <circle cx="52.75" cy="52.75" r="39.37" transform="translate(-0.89 0.91) rotate(-0.98)"/>
          </g>
          <g>
            <path class="cls-4" d="M63.58,30v0a2,2,0,0,0-3.69-.5,36.14,36.14,0,0,0-2,4.65,49.08,49.08,0,0,0-2.76,14C55,51.71,56.66,55,59.69,57.82V73.57a2,2,0,0,0,3.91,0V30.28h0C63.6,30.17,63.59,30.07,63.58,30Z"/>
            <path class="cls-4" d="M49.87,45.44V29.52a1.18,1.18,0,1,0-2.35,0V42.33a1.17,1.17,0,0,1-2.34,0V29.52a1.18,1.18,0,1,0-2.35,0V42.33a1.18,1.18,0,0,1-2.35,0V29.52a1.17,1.17,0,1,0-2.34,0V45.44h0A5.87,5.87,0,0,0,42.05,51v22.6a2,2,0,0,0,3.91,0V51a5.88,5.88,0,0,0,3.91-5.52Z"/>
          </g>
        </g>
      </g>
    </g>
  </g>
</svg>
