<svg xmlns="http://www.w3.org/2000/svg" width="105" height="105" viewBox="0 0 105 105">
  <defs>
    <style>
      .cls-1 {
        fill: none;
      }

      .cls-2 {
        fill: #2373ba;
      }

      .cls-3 {
        opacity: 0.15;
      }

      .cls-4 {
        fill: #fff;
      }
    </style>
  </defs>
  <g id="Layer_2" data-name="Layer 2">
    <g id="Layer_1-2" data-name="Layer 1">
      <g>
        <rect class="cls-1" width="105" height="105"/>
        <g id="illustration-product">
          <path class="cls-2" d="M102.5,2.5H52.16c-43.9,0-66.63,53.06-34.69,85s85,9.21,85-34.66Z"/>
          <g class="cls-3">
            <circle cx="52.75" cy="52.25" r="39.37" transform="translate(-0.39 104.09) rotate(-89.01)"/>
          </g>
          <path class="cls-4" d="M75.07,33.35H68.52a1.32,1.32,0,0,0-1.28,1L66,39.72l-35,0a1.29,1.29,0,0,0-1,.5,1.32,1.32,0,0,0-.25,1.12L34,59.22a1.3,1.3,0,0,0,1.27,1H61.1l-.83,3.5H38.7a4.7,4.7,0,1,0,4.7,4.69,4.64,4.64,0,0,0-.49-2.07H56.48A4.64,4.64,0,0,0,56,68.41a4.7,4.7,0,1,0,6.85-4.17L69.55,36h5.52a1.31,1.31,0,1,0,0-2.62ZM38.7,70.49a2.08,2.08,0,1,1,2.07-2.08A2.08,2.08,0,0,1,38.7,70.49ZM45,48.86l-.77-6.48,9.34.06-.76,6.42Zm7.49,2.62-.72,6.12H46.07l-.72-6.12ZM34.21,48.86l-1.59-6.54,9,0,.78,6.49Zm.64,2.62h7.88l.73,6.12H36.34Zm25.84,19a2.08,2.08,0,1,1,2.07-2.08A2.08,2.08,0,0,1,60.69,70.49Zm1-12.89H54.43l.72-6.12h8Zm2.08-8.74H55.47l.76-6.41,9.08,0Z"/>
        </g>
      </g>
    </g>
  </g>
</svg>
