<svg xmlns="http://www.w3.org/2000/svg" width="105" height="105" viewBox="0 0 105 105">
  <defs>
    <style>
      .cls-1 {
        fill: none;
      }

      .cls-2 {
        fill: #7559a6;
      }

      .cls-3 {
        opacity: 0.15;
      }

      .cls-4 {
        fill: #fff;
      }
    </style>
  </defs>
  <g id="Layer_2" data-name="Layer 2">
    <g id="Layer_1-2" data-name="Layer 1">
      <g>
        <rect class="cls-1" width="105" height="105"/>
        <g id="illustration-transport">
          <path class="cls-2" d="M2.5,102.5H52.84c43.9,0,66.63-53.06,34.69-85s-85-9.21-85,34.66Z"/>
          <g class="cls-3">
            <path d="M24.41,24.91a39.37,39.37,0,1,1,0,55.68A39.38,39.38,0,0,1,24.41,24.91Z"/>
          </g>
          <path class="cls-4" d="M74.39,39.94H70.15l-3.32-5.35A7.21,7.21,0,0,0,61,31.44H43.28a7.21,7.21,0,0,0-5.81,3.15l-3.32,5.35H29.91c-1.95,0-2.59,3.08-.73,3.66l2.26.7-1,1.64c-1.29,2.09-1.58,5.67-1.58,9V66a1.2,1.2,0,0,0,1.2,1.2h5.11A1.21,1.21,0,0,0,36.36,66V63H67.94V66a1.2,1.2,0,0,0,1.2,1.2h5.12a1.2,1.2,0,0,0,1.2-1.2v-11c0-3.32-.29-6.9-1.59-9l-1-1.64,2.26-.7C77,43,76.33,39.94,74.39,39.94ZM35,42.91l4.43-7.13a5,5,0,0,1,3.89-2.08H61a5,5,0,0,1,3.89,2.08l4.43,7.13a.86.86,0,0,1-.74,1.39H35.7A.86.86,0,0,1,35,42.91Zm3.78,11.25H34.39a2.64,2.64,0,0,1,0-5.27,2.86,2.86,0,0,1,.89.15l4.09,1.46a1.89,1.89,0,0,1-.63,3.66ZM58.69,59.4a.74.74,0,0,1-.75.75H46.36a.75.75,0,0,1-.76-.75V58.05a.75.75,0,0,1,.76-.75H57.94a.74.74,0,0,1,.75.75ZM69.9,54.16H65.56a1.88,1.88,0,0,1-1.88-1.88,1.9,1.9,0,0,1,1.24-1.78L69,49a2.8,2.8,0,0,1,.88-.15,2.64,2.64,0,1,1,0,5.27Z"/>
        </g>
      </g>
    </g>
  </g>
</svg>
